<?xml version="1.0" encoding="utf-8"?>
<!-- Generator: Adobe Illustrator 23.0.1, SVG Export Plug-In . SVG Version: 6.00 Build 0)  -->
<svg version="1.1" id="Layer_1" xmlns="http://www.w3.org/2000/svg" xmlns:xlink="http://www.w3.org/1999/xlink" x="0px" y="0px"
	 viewBox="0 0 200 300" style="enable-background:new 0 0 200 300;" xml:space="preserve">
<style type="text/css">
	.st0{fill:#EC4E38;}
</style>
<g>
	<path class="st0" d="M33.3,208.6c-3.6,0-7.2-0.9-10.6-2.7c-7.4-4-11.8-11.4-11.8-19.8V32.5c0-7.8,3.9-14.9,10.5-19
		C27.9,9.4,36,8.9,43,12.3l133.7,64.8c7.3,3.6,12,10.5,12.6,18.7c0.5,8.1-3.2,15.7-10,20.2L45.6,204.8
		C41.8,207.3,37.6,208.6,33.3,208.6z M33.2,15.4c-3.1,0-6.3,0.9-9,2.6c-5,3.1-8,8.5-8,14.5v153.6c0,6.4,3.4,12,9,15
		c5.6,3,12.2,2.7,17.5-0.8l133.7-88.8c5.2-3.4,8-9.2,7.6-15.4c-0.4-6.2-4-11.5-9.6-14.2L40.7,17.1C38.3,16,35.7,15.4,33.2,15.4z"/>
	<path class="st0" d="M164.9,290H27.8c-9.4,0-17-7.6-17-17V150.5c0-6.8,3.8-12.7,10-15.5c6.2-2.8,13.2-1.7,18.2,2.8l137.1,122.6
		c5.4,4.8,7.1,12,4.5,18.7C178.2,285.8,172.1,290,164.9,290z M27.8,138.8c-1.6,0-3.2,0.3-4.8,1c-4.2,1.9-6.9,5.9-6.9,10.6v122.6
		c0,6.4,5.2,11.6,11.6,11.6h137.1c5.9,0,9.5-3.9,10.8-7.5c1.4-3.6,1.3-8.9-3.1-12.8L35.5,141.8C33.3,139.9,30.6,138.8,27.8,138.8z"
		/>
	<path class="st0" d="M167.4,290H25c-4,0-7.8-1.7-10.5-4.8c-2.9-3.3-4.3-7.8-3.8-12.2v0c0.1-0.8,0.3-1.6,0.5-2.5l71-248.8
		c1.5-6.8,7-11.5,13.6-11.7c6.7-0.2,12.3,4.1,14.2,10.9l71.2,249.7c1.3,4.8,0.4,9.9-2.6,13.8C175.9,287.9,171.8,290,167.4,290z
		 M16.1,273.6c-0.4,3,0.6,5.9,2.5,8c1.7,1.9,4,3,6.5,3h142.4c2.7,0,5.2-1.3,7-3.6c1.9-2.5,2.6-5.9,1.7-9.1L104.9,22.3
		c-1.5-5.3-5.6-7.1-8.9-7c-3.2,0.1-7.4,2.1-8.5,7.5l0,0.2l-71,248.9C16.2,272.6,16.1,273.1,16.1,273.6L16.1,273.6z"/>
</g>
</svg>
